G75*
%MOIN*%
%OFA0B0*%
%FSLAX24Y24*%
%IPPOS*%
%LPD*%
%AMOC8*
5,1,8,0,0,1.08239X$1,22.5*
%
%ADD10R,0.0354X0.0276*%
%ADD11R,0.0433X0.0394*%
%ADD12R,0.0591X0.0472*%
%ADD13R,0.0354X0.0374*%
%ADD14R,0.0276X0.0354*%
%ADD15R,0.0118X0.0315*%
%ADD16R,0.0315X0.0118*%
%ADD17R,0.0866X0.0591*%
D10*
X001340Y002611D03*
X001340Y003123D03*
X001970Y003241D03*
X002501Y003222D03*
X002501Y003733D03*
X001970Y003753D03*
X008341Y003714D03*
X008833Y003714D03*
X009325Y003714D03*
X009325Y003202D03*
X008833Y003202D03*
X008341Y003202D03*
D11*
X004371Y003261D03*
X003702Y003261D03*
D12*
X001497Y001174D03*
X002639Y001174D03*
X002225Y001844D03*
X001084Y001844D03*
X002796Y004285D03*
X003938Y004285D03*
X009365Y004521D03*
X010506Y004521D03*
D13*
X003239Y002592D03*
X001999Y002592D03*
D14*
X010093Y005190D03*
X010605Y005190D03*
X010423Y000680D03*
X010935Y000680D03*
D15*
X010959Y001686D03*
X010762Y001686D03*
X010565Y001686D03*
X010369Y001686D03*
X010172Y001686D03*
X011156Y001686D03*
X011156Y003261D03*
X010959Y003261D03*
X010762Y003261D03*
X010565Y003261D03*
X010369Y003261D03*
X010172Y003261D03*
D16*
X009877Y002966D03*
X009877Y002769D03*
X009877Y002572D03*
X009877Y002375D03*
X009877Y002178D03*
X009877Y001981D03*
X011451Y001981D03*
X011451Y002178D03*
X011451Y002375D03*
X011451Y002572D03*
X011451Y002769D03*
X011451Y002966D03*
D17*
G36*
X011638Y003383D02*
X012387Y003816D01*
X012682Y003307D01*
X011933Y002874D01*
X011638Y003383D01*
G37*
G36*
X011008Y004474D02*
X011757Y004907D01*
X012052Y004398D01*
X011303Y003965D01*
X011008Y004474D01*
G37*
G36*
X008142Y001536D02*
X008698Y002199D01*
X009150Y001820D01*
X008594Y001157D01*
X008142Y001536D01*
G37*
G36*
X009107Y000726D02*
X009663Y001389D01*
X010115Y001010D01*
X009559Y000347D01*
X009107Y000726D01*
G37*
G36*
X004582Y002409D02*
X005193Y001798D01*
X004776Y001381D01*
X004165Y001992D01*
X004582Y002409D01*
G37*
G36*
X003691Y001518D02*
X004302Y000907D01*
X003885Y000490D01*
X003274Y001101D01*
X003691Y001518D01*
G37*
G36*
X001017Y004490D02*
X001607Y003858D01*
X001175Y003456D01*
X000585Y004088D01*
X001017Y004490D01*
G37*
G36*
X001938Y005349D02*
X002528Y004717D01*
X002096Y004315D01*
X001506Y004947D01*
X001938Y005349D01*
G37*
M02*
