%
M48
M72
T01C0.0130
T02C0.0236
%
T01
X2029Y879
X4233Y1489
X3977Y2316
X4804Y2749
X2855Y2867
X2954Y3714
X4351Y3733
X1497Y4265
X1615Y1922
X8203Y2808
X9168Y2867
X9817Y3517
X10808Y3694
X11451Y3655
X11924Y3930
X10388Y4048
X9424Y4068
X12030Y2327
X9719Y1686
X9168Y1391
X8853Y918
X10600Y1099
T02
X11025Y1155
X11497Y1332
X11871Y1666
X3151Y505
X611Y2375
X572Y3143
X2659Y5170
M30
