G75*
%MOIN*%
%OFA0B0*%
%FSLAX24Y24*%
%IPPOS*%
%LPD*%
%AMOC8*
5,1,8,0,0,1.08239X$1,22.5*
%
%ADD10C,0.0004*%
D10*
X005533Y002119D02*
X007436Y002119D01*
X007436Y002120D02*
X007468Y002020D01*
X007503Y001921D01*
X007542Y001824D01*
X007585Y001728D01*
X007631Y001634D01*
X007681Y001542D01*
X007735Y001452D01*
X007791Y001364D01*
X007851Y001278D01*
X007914Y001194D01*
X007981Y001113D01*
X008050Y001035D01*
X008122Y000959D01*
X008197Y000886D01*
X008275Y000815D01*
X008355Y000748D01*
X008438Y000684D01*
X008523Y000623D01*
X008611Y000565D01*
X008700Y000511D01*
X008792Y000460D01*
X008885Y000413D01*
X008980Y000369D01*
X009077Y000328D01*
X009175Y000292D01*
X009275Y000259D01*
X009375Y000230D01*
X009477Y000205D01*
X009579Y000183D01*
X009683Y000166D01*
X009787Y000152D01*
X009891Y000142D01*
X009995Y000137D01*
X010100Y000135D01*
X010205Y000137D01*
X010310Y000143D01*
X010414Y000154D01*
X010518Y000168D01*
X010621Y000186D01*
X010723Y000207D01*
X010825Y000233D01*
X010925Y000263D01*
X011025Y000296D01*
X011123Y000333D01*
X011219Y000374D01*
X011314Y000418D01*
X011407Y000466D01*
X011499Y000517D01*
X011588Y000572D01*
X011675Y000630D01*
X011760Y000692D01*
X011843Y000756D01*
X011923Y000824D01*
X012000Y000894D01*
X012075Y000968D01*
X012147Y001044D01*
X012216Y001123D01*
X012281Y001204D01*
X012344Y001288D01*
X012404Y001374D01*
X012460Y001463D01*
X012513Y001553D01*
X012562Y001646D01*
X012608Y001740D01*
X012651Y001836D01*
X012689Y001933D01*
X012724Y002032D01*
X012755Y002132D01*
X012783Y002233D01*
X012806Y002335D01*
X012826Y002438D01*
X012842Y002541D01*
X012854Y002645D01*
X012862Y002750D01*
X012866Y002855D01*
X012866Y002959D01*
X012862Y003064D01*
X012854Y003169D01*
X012842Y003273D01*
X012826Y003376D01*
X012806Y003479D01*
X012783Y003581D01*
X012755Y003682D01*
X012724Y003782D01*
X012689Y003881D01*
X012651Y003978D01*
X012608Y004074D01*
X012562Y004168D01*
X012513Y004261D01*
X012460Y004351D01*
X012404Y004440D01*
X012344Y004526D01*
X012281Y004610D01*
X012216Y004691D01*
X012147Y004770D01*
X012075Y004846D01*
X012000Y004920D01*
X011923Y004990D01*
X011843Y005058D01*
X011760Y005122D01*
X011675Y005184D01*
X011588Y005242D01*
X011499Y005297D01*
X011407Y005348D01*
X011314Y005396D01*
X011219Y005440D01*
X011123Y005481D01*
X011025Y005518D01*
X010925Y005551D01*
X010825Y005581D01*
X010723Y005607D01*
X010621Y005628D01*
X010518Y005646D01*
X010414Y005660D01*
X010310Y005671D01*
X010205Y005677D01*
X010100Y005679D01*
X009995Y005677D01*
X009891Y005672D01*
X009787Y005662D01*
X009683Y005648D01*
X009579Y005631D01*
X009477Y005609D01*
X009375Y005584D01*
X009275Y005555D01*
X009175Y005522D01*
X009077Y005486D01*
X008980Y005445D01*
X008885Y005401D01*
X008792Y005354D01*
X008700Y005303D01*
X008611Y005249D01*
X008523Y005191D01*
X008438Y005130D01*
X008355Y005066D01*
X008275Y004999D01*
X008197Y004928D01*
X008122Y004855D01*
X008050Y004779D01*
X007981Y004701D01*
X007914Y004620D01*
X007851Y004536D01*
X007791Y004450D01*
X007735Y004362D01*
X007681Y004272D01*
X007631Y004180D01*
X007585Y004086D01*
X007542Y003990D01*
X007503Y003893D01*
X007468Y003794D01*
X007436Y003694D01*
X005533Y003694D01*
X005532Y003694D02*
X005500Y003794D01*
X005465Y003893D01*
X005426Y003990D01*
X005383Y004086D01*
X005337Y004180D01*
X005287Y004272D01*
X005233Y004362D01*
X005177Y004450D01*
X005117Y004536D01*
X005054Y004620D01*
X004987Y004701D01*
X004918Y004779D01*
X004846Y004855D01*
X004771Y004928D01*
X004693Y004999D01*
X004613Y005066D01*
X004530Y005130D01*
X004445Y005191D01*
X004357Y005249D01*
X004268Y005303D01*
X004176Y005354D01*
X004083Y005401D01*
X003988Y005445D01*
X003891Y005486D01*
X003793Y005522D01*
X003693Y005555D01*
X003593Y005584D01*
X003491Y005609D01*
X003389Y005631D01*
X003285Y005648D01*
X003181Y005662D01*
X003077Y005672D01*
X002973Y005677D01*
X002868Y005679D01*
X002763Y005677D01*
X002658Y005671D01*
X002554Y005660D01*
X002450Y005646D01*
X002347Y005628D01*
X002245Y005607D01*
X002143Y005581D01*
X002043Y005551D01*
X001943Y005518D01*
X001845Y005481D01*
X001749Y005440D01*
X001654Y005396D01*
X001561Y005348D01*
X001469Y005297D01*
X001380Y005242D01*
X001293Y005184D01*
X001208Y005122D01*
X001125Y005058D01*
X001045Y004990D01*
X000968Y004920D01*
X000893Y004846D01*
X000821Y004770D01*
X000752Y004691D01*
X000687Y004610D01*
X000624Y004526D01*
X000564Y004440D01*
X000508Y004351D01*
X000455Y004261D01*
X000406Y004168D01*
X000360Y004074D01*
X000317Y003978D01*
X000279Y003881D01*
X000244Y003782D01*
X000213Y003682D01*
X000185Y003581D01*
X000162Y003479D01*
X000142Y003376D01*
X000126Y003273D01*
X000114Y003169D01*
X000106Y003064D01*
X000102Y002959D01*
X000102Y002855D01*
X000106Y002750D01*
X000114Y002645D01*
X000126Y002541D01*
X000142Y002438D01*
X000162Y002335D01*
X000185Y002233D01*
X000213Y002132D01*
X000244Y002032D01*
X000279Y001933D01*
X000317Y001836D01*
X000360Y001740D01*
X000406Y001646D01*
X000455Y001553D01*
X000508Y001463D01*
X000564Y001374D01*
X000624Y001288D01*
X000687Y001204D01*
X000752Y001123D01*
X000821Y001044D01*
X000893Y000968D01*
X000968Y000894D01*
X001045Y000824D01*
X001125Y000756D01*
X001208Y000692D01*
X001293Y000630D01*
X001380Y000572D01*
X001469Y000517D01*
X001561Y000466D01*
X001654Y000418D01*
X001749Y000374D01*
X001845Y000333D01*
X001943Y000296D01*
X002043Y000263D01*
X002143Y000233D01*
X002245Y000207D01*
X002347Y000186D01*
X002450Y000168D01*
X002554Y000154D01*
X002658Y000143D01*
X002763Y000137D01*
X002868Y000135D01*
X002973Y000137D01*
X003077Y000142D01*
X003181Y000152D01*
X003285Y000166D01*
X003389Y000183D01*
X003491Y000205D01*
X003593Y000230D01*
X003693Y000259D01*
X003793Y000292D01*
X003891Y000328D01*
X003988Y000369D01*
X004083Y000413D01*
X004176Y000460D01*
X004268Y000511D01*
X004357Y000565D01*
X004445Y000623D01*
X004530Y000684D01*
X004613Y000748D01*
X004693Y000815D01*
X004771Y000886D01*
X004846Y000959D01*
X004918Y001035D01*
X004987Y001113D01*
X005054Y001194D01*
X005117Y001278D01*
X005177Y001364D01*
X005233Y001452D01*
X005287Y001542D01*
X005337Y001634D01*
X005383Y001728D01*
X005426Y001824D01*
X005465Y001921D01*
X005500Y002020D01*
X005532Y002120D01*
M02*
