G75*
%MOIN*%
%OFA0B0*%
%FSLAX24Y24*%
%IPPOS*%
%LPD*%
%AMOC8*
5,1,8,0,0,1.08239X$1,22.5*
%
%ADD10R,0.0454X0.0493*%
%ADD11R,0.0493X0.0454*%
%ADD12R,0.0336X0.0414*%
%ADD13OC8,0.0436*%
%ADD14R,0.0414X0.0336*%
%ADD15C,0.0560*%
%ADD16R,0.0540X0.0217*%
%ADD17R,0.0257X0.0532*%
%ADD18R,0.0532X0.0257*%
%ADD19R,0.0151X0.0572*%
%ADD20C,0.0330*%
D10*
X001832Y002926D03*
X001832Y003596D03*
D11*
X008282Y002395D03*
X008951Y002395D03*
D12*
X008695Y003281D03*
X008184Y003281D03*
X008538Y003851D03*
X009050Y003851D03*
X009089Y004403D03*
X008577Y004403D03*
X009562Y001292D03*
X010073Y001292D03*
X010073Y000800D03*
X009562Y000800D03*
D13*
X011025Y001155D03*
X011497Y001332D03*
X011871Y001666D03*
X003151Y000505D03*
X000611Y002375D03*
X000572Y003143D03*
X002659Y005170D03*
D14*
X002403Y003655D03*
X002403Y003143D03*
X001103Y003005D03*
X001103Y003517D03*
X004391Y002828D03*
X004391Y002316D03*
X004804Y002021D03*
X004804Y001509D03*
X008479Y001745D03*
X008479Y001233D03*
D15*
X002816Y004422D03*
X009719Y004737D03*
X010408Y004836D03*
X011097Y004836D03*
D16*
X003411Y002050D03*
X003411Y001794D03*
X003411Y001538D03*
X003411Y001283D03*
X002379Y001283D03*
X002379Y001538D03*
X002379Y001794D03*
X002379Y002050D03*
D17*
X009857Y002159D03*
X010172Y002159D03*
X010487Y002159D03*
X010802Y002159D03*
X011117Y002159D03*
X011432Y002159D03*
X011432Y003025D03*
X011117Y003025D03*
X010802Y003025D03*
X010487Y003025D03*
X010172Y003025D03*
X009857Y003025D03*
D18*
X009817Y002592D03*
X011471Y002592D03*
D19*
X003859Y003497D03*
X003663Y003497D03*
X003466Y003497D03*
X003269Y003497D03*
X003269Y004285D03*
X003466Y004285D03*
X003663Y004285D03*
X003859Y004285D03*
D20*
X002029Y000879D03*
X004233Y001489D03*
X003977Y002316D03*
X004804Y002749D03*
X002855Y002867D03*
X002954Y003714D03*
X004351Y003733D03*
X001497Y004265D03*
X001615Y001922D03*
X008203Y002808D03*
X009168Y002867D03*
X009817Y003517D03*
X010808Y003694D03*
X011451Y003655D03*
X011924Y003930D03*
X010388Y004048D03*
X009424Y004068D03*
X012030Y002327D03*
X009719Y001686D03*
X009168Y001391D03*
X008853Y000918D03*
X010600Y001099D03*
M02*
