G75*
%MOIN*%
%OFA0B0*%
%FSLAX24Y24*%
%IPPOS*%
%LPD*%
%AMOC8*
5,1,8,0,0,1.08239X$1,22.5*
%
%ADD10C,0.0220*%
%ADD11C,0.0010*%
%ADD12C,0.0160*%
%ADD13R,0.0280X0.0160*%
%ADD14R,0.0160X0.0280*%
%ADD15C,0.0060*%
%ADD16C,0.0080*%
%ADD17C,0.0020*%
D10*
X001820Y003261D02*
X001844Y003261D01*
X008617Y002407D02*
X008617Y002383D01*
D11*
X009293Y002409D02*
X009393Y002409D01*
X009318Y002484D01*
X009318Y002333D01*
X009440Y002358D02*
X009466Y002333D01*
X009516Y002333D01*
X009541Y002358D01*
X009541Y002459D01*
X009516Y002484D01*
X009466Y002484D01*
X009440Y002459D01*
X008220Y001760D02*
X008195Y001785D01*
X008170Y001785D01*
X008145Y001760D01*
X008120Y001785D01*
X008095Y001785D01*
X008070Y001760D01*
X008070Y001710D01*
X008095Y001685D01*
X008070Y001638D02*
X008120Y001588D01*
X008120Y001613D02*
X008120Y001538D01*
X008070Y001538D02*
X008220Y001538D01*
X008220Y001613D01*
X008195Y001638D01*
X008145Y001638D01*
X008120Y001613D01*
X008195Y001685D02*
X008220Y001710D01*
X008220Y001760D01*
X008145Y001760D02*
X008145Y001735D01*
X009128Y000812D02*
X009153Y000837D01*
X009203Y000837D01*
X009228Y000812D01*
X009228Y000787D01*
X009203Y000762D01*
X009128Y000762D01*
X009128Y000712D02*
X009128Y000812D01*
X009275Y000812D02*
X009300Y000837D01*
X009350Y000837D01*
X009375Y000812D01*
X009375Y000712D01*
X009350Y000687D01*
X009300Y000687D01*
X009275Y000712D01*
X009228Y000712D02*
X009203Y000687D01*
X009153Y000687D01*
X009128Y000712D01*
X010309Y001302D02*
X010334Y001277D01*
X010384Y001277D01*
X010409Y001302D01*
X010409Y001327D01*
X010384Y001352D01*
X010334Y001352D01*
X010309Y001327D01*
X010309Y001302D01*
X010334Y001352D02*
X010309Y001377D01*
X010309Y001402D01*
X010334Y001427D01*
X010384Y001427D01*
X010409Y001402D01*
X010409Y001377D01*
X010384Y001352D01*
X010456Y001302D02*
X010481Y001277D01*
X010531Y001277D01*
X010556Y001302D01*
X010556Y001402D01*
X010531Y001427D01*
X010481Y001427D01*
X010456Y001402D01*
X009142Y003244D02*
X009092Y003244D01*
X009066Y003269D01*
X009019Y003269D02*
X008994Y003244D01*
X008944Y003244D01*
X008919Y003269D01*
X008919Y003319D01*
X008944Y003344D01*
X008969Y003344D01*
X009019Y003319D01*
X009019Y003394D01*
X008919Y003394D01*
X009066Y003369D02*
X009092Y003394D01*
X009142Y003394D01*
X009167Y003369D01*
X009167Y003269D01*
X009142Y003244D01*
X009261Y003836D02*
X009311Y003836D01*
X009336Y003861D01*
X009236Y003961D01*
X009236Y003861D01*
X009261Y003836D01*
X009336Y003861D02*
X009336Y003961D01*
X009311Y003986D01*
X009261Y003986D01*
X009236Y003961D01*
X009434Y003986D02*
X009434Y003836D01*
X009484Y003836D02*
X009384Y003836D01*
X009531Y003861D02*
X009556Y003836D01*
X009606Y003836D01*
X009631Y003861D01*
X009631Y003961D01*
X009606Y003986D01*
X009556Y003986D01*
X009531Y003961D01*
X009484Y003936D02*
X009434Y003986D01*
X009460Y004465D02*
X009510Y004515D01*
X009485Y004515D02*
X009560Y004515D01*
X009560Y004465D02*
X009560Y004615D01*
X009485Y004615D01*
X009460Y004590D01*
X009460Y004540D01*
X009485Y004515D01*
X009413Y004515D02*
X009413Y004490D01*
X009388Y004465D01*
X009338Y004465D01*
X009313Y004490D01*
X009313Y004515D01*
X009338Y004540D01*
X009388Y004540D01*
X009413Y004565D01*
X009413Y004590D01*
X009388Y004615D01*
X009338Y004615D01*
X009313Y004590D01*
X009313Y004565D01*
X009338Y004540D01*
X009388Y004540D02*
X009413Y004515D01*
X004308Y002067D02*
X004283Y002092D01*
X004258Y002092D01*
X004158Y001992D01*
X004158Y002092D01*
X004308Y002067D02*
X004308Y002017D01*
X004283Y001992D01*
X004283Y001945D02*
X004233Y001945D01*
X004208Y001920D01*
X004208Y001845D01*
X004208Y001895D02*
X004158Y001945D01*
X004283Y001945D02*
X004308Y001920D01*
X004308Y001845D01*
X004158Y001845D01*
X005084Y001815D02*
X005134Y001765D01*
X005134Y001790D02*
X005134Y001715D01*
X005084Y001715D02*
X005234Y001715D01*
X005234Y001790D01*
X005209Y001815D01*
X005159Y001815D01*
X005134Y001790D01*
X005109Y001862D02*
X005084Y001887D01*
X005084Y001938D01*
X005109Y001963D01*
X005159Y001963D01*
X005184Y001938D01*
X005184Y001912D01*
X005159Y001862D01*
X005234Y001862D01*
X005234Y001963D01*
X001119Y003715D02*
X001119Y003790D01*
X001094Y003815D01*
X001044Y003815D01*
X001019Y003790D01*
X001019Y003715D01*
X001019Y003765D02*
X000969Y003815D01*
X000994Y003862D02*
X000969Y003887D01*
X000969Y003937D01*
X000994Y003962D01*
X001019Y003962D01*
X001044Y003937D01*
X001044Y003862D01*
X000994Y003862D01*
X001044Y003862D02*
X001094Y003912D01*
X001119Y003962D01*
X001119Y003715D02*
X000969Y003715D01*
X001743Y003925D02*
X001743Y003975D01*
X001768Y004000D01*
X001768Y004047D02*
X001743Y004073D01*
X001743Y004123D01*
X001768Y004148D01*
X001793Y004148D01*
X001818Y004123D01*
X001818Y004098D01*
X001818Y004123D02*
X001843Y004148D01*
X001868Y004148D01*
X001893Y004123D01*
X001893Y004073D01*
X001868Y004047D01*
X001868Y004000D02*
X001893Y003975D01*
X001893Y003925D01*
X001868Y003900D01*
X001768Y003900D01*
X001743Y003925D01*
X002268Y003953D02*
X002318Y003903D01*
X002318Y003928D02*
X002318Y003853D01*
X002268Y003853D02*
X002418Y003853D01*
X002418Y003928D01*
X002393Y003953D01*
X002343Y003953D01*
X002318Y003928D01*
X002293Y004000D02*
X002268Y004000D01*
X002293Y004000D02*
X002393Y004100D01*
X002418Y004100D01*
X002418Y004000D01*
D12*
X008440Y003293D02*
X008440Y003269D01*
X008794Y003839D02*
X008794Y003863D01*
X009817Y001304D02*
X009817Y001280D01*
X009817Y000812D02*
X009817Y000788D01*
D13*
X008479Y001489D03*
X004804Y001765D03*
X004391Y002572D03*
X002403Y003399D03*
X001103Y003261D03*
D14*
X008833Y004403D03*
D15*
X002596Y001151D02*
X002596Y001088D01*
X003233Y001088D01*
X003233Y001151D01*
X002698Y001281D02*
X002700Y001293D01*
X002705Y001304D01*
X002714Y001313D01*
X002725Y001318D01*
X002737Y001320D01*
X002749Y001318D01*
X002760Y001313D01*
X002769Y001304D01*
X002774Y001293D01*
X002776Y001281D01*
X002774Y001269D01*
X002769Y001258D01*
X002760Y001249D01*
X002749Y001244D01*
X002737Y001242D01*
X002725Y001244D01*
X002714Y001249D01*
X002705Y001258D01*
X002700Y001269D01*
X002698Y001281D01*
X002151Y002079D02*
X002151Y002116D01*
X001513Y002116D01*
X002596Y002177D02*
X002596Y002245D01*
X003233Y002245D01*
X003233Y002177D01*
X003170Y003546D02*
X003131Y003546D01*
X003131Y004235D01*
X003170Y004235D01*
X003958Y004235D02*
X003997Y004235D01*
X003997Y003546D01*
X003958Y003546D01*
X004096Y003596D02*
X004098Y003608D01*
X004103Y003619D01*
X004112Y003628D01*
X004123Y003633D01*
X004135Y003635D01*
X004147Y003633D01*
X004158Y003628D01*
X004167Y003619D01*
X004172Y003608D01*
X004174Y003596D01*
X004172Y003584D01*
X004167Y003573D01*
X004158Y003564D01*
X004147Y003559D01*
X004135Y003557D01*
X004123Y003559D01*
X004112Y003564D01*
X004103Y003573D01*
X004098Y003584D01*
X004096Y003596D01*
D16*
X009660Y003182D02*
X009660Y002867D01*
X009660Y002316D02*
X009660Y002001D01*
X010999Y002592D02*
X011001Y002604D01*
X011006Y002615D01*
X011015Y002624D01*
X011026Y002629D01*
X011038Y002631D01*
X011050Y002629D01*
X011061Y002624D01*
X011070Y002615D01*
X011075Y002604D01*
X011077Y002592D01*
X011075Y002580D01*
X011070Y002569D01*
X011061Y002560D01*
X011050Y002555D01*
X011038Y002553D01*
X011026Y002555D01*
X011015Y002560D01*
X011006Y002569D01*
X011001Y002580D01*
X010999Y002592D01*
X011628Y002867D02*
X011628Y003182D01*
X011628Y002316D02*
X011628Y002001D01*
D17*
X009664Y005049D02*
X009664Y005189D01*
X009617Y005142D01*
X009570Y005189D01*
X009570Y005049D01*
X009516Y005049D02*
X009470Y005049D01*
X009493Y005049D02*
X009493Y005189D01*
X009516Y005189D02*
X009470Y005189D01*
X009418Y005166D02*
X009418Y005142D01*
X009395Y005119D01*
X009348Y005119D01*
X009325Y005096D01*
X009325Y005072D01*
X009348Y005049D01*
X009395Y005049D01*
X009418Y005072D01*
X009271Y005072D02*
X009248Y005049D01*
X009201Y005049D01*
X009177Y005072D01*
X009177Y005166D01*
X009201Y005189D01*
X009248Y005189D01*
X009271Y005166D01*
X009271Y005072D01*
X009325Y005166D02*
X009348Y005189D01*
X009395Y005189D01*
X009418Y005166D01*
X009864Y005246D02*
X009911Y005246D01*
X009887Y005246D02*
X009887Y005386D01*
X009864Y005386D02*
X009911Y005386D01*
X009965Y005362D02*
X009988Y005386D01*
X010035Y005386D01*
X010058Y005362D01*
X010058Y005339D01*
X010035Y005316D01*
X009988Y005316D01*
X009965Y005292D01*
X009965Y005269D01*
X009988Y005246D01*
X010035Y005246D01*
X010058Y005269D01*
X010112Y005269D02*
X010112Y005362D01*
X010135Y005386D01*
X010182Y005386D01*
X010205Y005362D01*
X010205Y005269D01*
X010182Y005246D01*
X010135Y005246D01*
X010112Y005269D01*
X010259Y005246D02*
X010259Y005386D01*
X010306Y005339D01*
X010353Y005386D01*
X010353Y005246D01*
X010752Y005287D02*
X010845Y005194D01*
X010822Y005217D02*
X010752Y005147D01*
X010845Y005147D02*
X010845Y005287D01*
X010899Y005264D02*
X010923Y005287D01*
X010969Y005287D01*
X010993Y005264D01*
X010993Y005171D01*
X010969Y005147D01*
X010923Y005147D01*
X010899Y005171D01*
X011047Y005171D02*
X011070Y005147D01*
X011117Y005147D01*
X011140Y005171D01*
X011117Y005217D02*
X011070Y005217D01*
X011047Y005194D01*
X011047Y005171D01*
X011117Y005217D02*
X011140Y005241D01*
X011140Y005264D01*
X011117Y005287D01*
X011070Y005287D01*
X011047Y005264D01*
M02*
